<mxfile host="app.diagrams.net" modified="2023-10-11T14:40:24.736Z" agent="Mozilla/5.0 (Windows NT 10.0; Win64; x64) AppleWebKit/537.36 (KHTML, like Gecko) Chrome/117.0.0.0 Safari/537.36" etag="IkCtWMrDWwP31f1bcaA4" version="22.0.4" type="device">
  <diagram id="CJTJgx32DBK6bhkFqOQU" name="Page-1">
    <mxGraphModel dx="1120" dy="478" grid="1" gridSize="10" guides="1" tooltips="1" connect="1" arrows="1" fold="1" page="1" pageScale="1" pageWidth="850" pageHeight="1100" math="0" shadow="0">
      <root>
        <mxCell id="0" />
        <mxCell id="1" parent="0" />
        <mxCell id="k0hHhOhGo7dog3xeDhLh-5" value="VPC" style="sketch=0;outlineConnect=0;gradientColor=none;html=1;whiteSpace=wrap;fontSize=12;fontStyle=0;shape=mxgraph.aws4.group;grIcon=mxgraph.aws4.group_vpc;strokeColor=#879196;fillColor=none;verticalAlign=top;align=left;spacingLeft=30;fontColor=#879196;dashed=0;" parent="1" vertex="1">
          <mxGeometry x="75" y="80" width="700" height="420" as="geometry" />
        </mxCell>
        <mxCell id="k0hHhOhGo7dog3xeDhLh-1" value="AWS Cloud" style="sketch=0;outlineConnect=0;gradientColor=none;html=1;whiteSpace=wrap;fontSize=12;fontStyle=0;shape=mxgraph.aws4.group;grIcon=mxgraph.aws4.group_aws_cloud;strokeColor=#AAB7B8;fillColor=none;verticalAlign=top;align=left;spacingLeft=30;fontColor=#AAB7B8;dashed=0;" parent="1" vertex="1">
          <mxGeometry x="40" y="50" width="790" height="470" as="geometry" />
        </mxCell>
        <mxCell id="k0hHhOhGo7dog3xeDhLh-2" value="" style="rounded=1;arcSize=10;dashed=1;strokeColor=#F59D56;fillColor=none;gradientColor=none;dashPattern=8 4;strokeWidth=2;" parent="1" vertex="1">
          <mxGeometry x="145" y="120" width="250" height="360" as="geometry" />
        </mxCell>
        <mxCell id="k0hHhOhGo7dog3xeDhLh-3" value="" style="rounded=1;arcSize=10;dashed=1;strokeColor=#F59D56;fillColor=none;gradientColor=none;dashPattern=8 4;strokeWidth=2;" parent="1" vertex="1">
          <mxGeometry x="470" y="110" width="250" height="360" as="geometry" />
        </mxCell>
        <mxCell id="k0hHhOhGo7dog3xeDhLh-6" value="Zone A" style="text;html=1;strokeColor=none;fillColor=none;align=center;verticalAlign=middle;whiteSpace=wrap;rounded=0;" parent="1" vertex="1">
          <mxGeometry x="160" y="120" width="60" height="30" as="geometry" />
        </mxCell>
        <mxCell id="k0hHhOhGo7dog3xeDhLh-7" value="Zone B" style="text;html=1;strokeColor=none;fillColor=none;align=center;verticalAlign=middle;whiteSpace=wrap;rounded=0;" parent="1" vertex="1">
          <mxGeometry x="470" y="120" width="60" height="30" as="geometry" />
        </mxCell>
        <mxCell id="k0hHhOhGo7dog3xeDhLh-8" value="Â Web 1" style="rounded=1;arcSize=10;dashed=0;fillColor=none;gradientColor=none;strokeWidth=2;" parent="1" vertex="1">
          <mxGeometry x="170" y="175" width="200" height="50" as="geometry" />
        </mxCell>
        <mxCell id="k0hHhOhGo7dog3xeDhLh-9" value="" style="dashed=0;html=1;shape=mxgraph.aws3.permissions;fillColor=#D9A741;gradientColor=none;dashed=0;" parent="1" vertex="1">
          <mxGeometry x="160" y="167.5" width="20" height="20" as="geometry" />
        </mxCell>
        <mxCell id="k0hHhOhGo7dog3xeDhLh-10" value="App 1" style="rounded=1;arcSize=10;dashed=0;fillColor=none;gradientColor=none;strokeWidth=2;" parent="1" vertex="1">
          <mxGeometry x="175" y="290" width="200" height="50" as="geometry" />
        </mxCell>
        <mxCell id="k0hHhOhGo7dog3xeDhLh-11" value="" style="rounded=1;arcSize=10;dashed=0;fillColor=none;gradientColor=none;strokeWidth=2;" parent="1" vertex="1">
          <mxGeometry x="180" y="415" width="510" height="37.5" as="geometry" />
        </mxCell>
        <mxCell id="k0hHhOhGo7dog3xeDhLh-12" value="Web2" style="rounded=1;arcSize=10;dashed=0;fillColor=none;gradientColor=none;strokeWidth=2;" parent="1" vertex="1">
          <mxGeometry x="492.5" y="167.5" width="200" height="50" as="geometry" />
        </mxCell>
        <mxCell id="k0hHhOhGo7dog3xeDhLh-13" value="App 2" style="rounded=1;arcSize=10;dashed=0;fillColor=none;gradientColor=none;strokeWidth=2;" parent="1" vertex="1">
          <mxGeometry x="497.5" y="282.5" width="200" height="50" as="geometry" />
        </mxCell>
        <mxCell id="k0hHhOhGo7dog3xeDhLh-15" value="" style="dashed=0;html=1;shape=mxgraph.aws3.permissions;fillColor=#D9A741;gradientColor=none;dashed=0;" parent="1" vertex="1">
          <mxGeometry x="175" y="410" width="20" height="20" as="geometry" />
        </mxCell>
        <mxCell id="k0hHhOhGo7dog3xeDhLh-16" value="" style="dashed=0;html=1;shape=mxgraph.aws3.permissions;fillColor=#D9A741;gradientColor=none;dashed=0;" parent="1" vertex="1">
          <mxGeometry x="170" y="290" width="20" height="20" as="geometry" />
        </mxCell>
        <mxCell id="k0hHhOhGo7dog3xeDhLh-18" value="" style="dashed=0;html=1;shape=mxgraph.aws3.permissions;fillColor=#D9A741;gradientColor=none;dashed=0;" parent="1" vertex="1">
          <mxGeometry x="490" y="160" width="20" height="20" as="geometry" />
        </mxCell>
        <mxCell id="k0hHhOhGo7dog3xeDhLh-19" value="" style="dashed=0;html=1;shape=mxgraph.aws3.permissions;fillColor=#D9A741;gradientColor=none;dashed=0;" parent="1" vertex="1">
          <mxGeometry x="492.5" y="280" width="20" height="20" as="geometry" />
        </mxCell>
        <mxCell id="k0hHhOhGo7dog3xeDhLh-22" value="" style="outlineConnect=0;dashed=0;verticalLabelPosition=bottom;verticalAlign=top;align=center;html=1;shape=mxgraph.aws3.ec2;fillColor=#F58534;gradientColor=none;" parent="1" vertex="1">
          <mxGeometry x="421.75" y="415" width="36.5" height="41.25" as="geometry" />
        </mxCell>
        <mxCell id="k0hHhOhGo7dog3xeDhLh-23" value="" style="outlineConnect=0;dashed=0;verticalLabelPosition=bottom;verticalAlign=top;align=center;html=1;shape=mxgraph.aws3.ec2;fillColor=#F58534;gradientColor=none;" parent="1" vertex="1">
          <mxGeometry x="220" y="180" width="30" height="40" as="geometry" />
        </mxCell>
        <mxCell id="k0hHhOhGo7dog3xeDhLh-24" value="" style="outlineConnect=0;dashed=0;verticalLabelPosition=bottom;verticalAlign=top;align=center;html=1;shape=mxgraph.aws3.ec2;fillColor=#F58534;gradientColor=none;" parent="1" vertex="1">
          <mxGeometry x="512.5" y="170" width="37.5" height="40" as="geometry" />
        </mxCell>
        <mxCell id="k0hHhOhGo7dog3xeDhLh-26" value="" style="outlineConnect=0;dashed=0;verticalLabelPosition=bottom;verticalAlign=top;align=center;html=1;shape=mxgraph.aws3.ec2;fillColor=#F58534;gradientColor=none;" parent="1" vertex="1">
          <mxGeometry x="530" y="280" width="30" height="47.5" as="geometry" />
        </mxCell>
        <mxCell id="k0hHhOhGo7dog3xeDhLh-27" value="" style="outlineConnect=0;dashed=0;verticalLabelPosition=bottom;verticalAlign=top;align=center;html=1;shape=mxgraph.aws3.ec2;fillColor=#F58534;gradientColor=none;" parent="1" vertex="1">
          <mxGeometry x="220" y="300" width="30" height="30" as="geometry" />
        </mxCell>
        <mxCell id="k0hHhOhGo7dog3xeDhLh-28" value="Pub Sub" style="text;html=1;strokeColor=none;fillColor=none;align=center;verticalAlign=middle;whiteSpace=wrap;rounded=0;" parent="1" vertex="1">
          <mxGeometry x="180" y="230" width="65" height="30" as="geometry" />
        </mxCell>
        <mxCell id="k0hHhOhGo7dog3xeDhLh-29" value="Pub Sub" style="text;html=1;strokeColor=none;fillColor=none;align=center;verticalAlign=middle;whiteSpace=wrap;rounded=0;" parent="1" vertex="1">
          <mxGeometry x="610" y="220" width="60" height="30" as="geometry" />
        </mxCell>
        <mxCell id="k0hHhOhGo7dog3xeDhLh-30" value="private Sub" style="text;html=1;strokeColor=none;fillColor=none;align=center;verticalAlign=middle;whiteSpace=wrap;rounded=0;" parent="1" vertex="1">
          <mxGeometry x="155" y="350" width="90" height="30" as="geometry" />
        </mxCell>
        <mxCell id="k0hHhOhGo7dog3xeDhLh-32" value="private Sub" style="text;html=1;strokeColor=none;fillColor=none;align=center;verticalAlign=middle;whiteSpace=wrap;rounded=0;" parent="1" vertex="1">
          <mxGeometry x="620" y="340" width="90" height="30" as="geometry" />
        </mxCell>
        <mxCell id="NFWhSgiE6PL1_wkVy4Nq-1" value="" style="outlineConnect=0;dashed=0;verticalLabelPosition=bottom;verticalAlign=top;align=center;html=1;shape=mxgraph.aws3.internet_gateway;fillColor=#F58536;gradientColor=none;" vertex="1" parent="1">
          <mxGeometry x="395" y="50" width="69" height="60" as="geometry" />
        </mxCell>
        <mxCell id="NFWhSgiE6PL1_wkVy4Nq-4" style="edgeStyle=orthogonalEdgeStyle;rounded=0;orthogonalLoop=1;jettySize=auto;html=1;exitX=0.5;exitY=1;exitDx=0;exitDy=0;exitPerimeter=0;entryX=1;entryY=0.5;entryDx=0;entryDy=0;" edge="1" parent="1" source="NFWhSgiE6PL1_wkVy4Nq-2" target="k0hHhOhGo7dog3xeDhLh-8">
          <mxGeometry relative="1" as="geometry">
            <Array as="points">
              <mxPoint x="431" y="200" />
            </Array>
          </mxGeometry>
        </mxCell>
        <mxCell id="NFWhSgiE6PL1_wkVy4Nq-29" value="" style="edgeStyle=orthogonalEdgeStyle;rounded=0;orthogonalLoop=1;jettySize=auto;html=1;" edge="1" parent="1" source="NFWhSgiE6PL1_wkVy4Nq-2" target="NFWhSgiE6PL1_wkVy4Nq-1">
          <mxGeometry relative="1" as="geometry" />
        </mxCell>
        <mxCell id="NFWhSgiE6PL1_wkVy4Nq-2" value="" style="outlineConnect=0;dashed=0;verticalLabelPosition=bottom;verticalAlign=top;align=center;html=1;shape=mxgraph.aws3.application_load_balancer;fillColor=#F58534;gradientColor=none;" vertex="1" parent="1">
          <mxGeometry x="401" y="134" width="59" height="46" as="geometry" />
        </mxCell>
        <mxCell id="NFWhSgiE6PL1_wkVy4Nq-5" style="edgeStyle=orthogonalEdgeStyle;rounded=0;orthogonalLoop=1;jettySize=auto;html=1;exitX=0.5;exitY=1;exitDx=0;exitDy=0;exitPerimeter=0;" edge="1" parent="1" source="NFWhSgiE6PL1_wkVy4Nq-2">
          <mxGeometry relative="1" as="geometry">
            <mxPoint x="441" y="190" as="sourcePoint" />
            <mxPoint x="493" y="193" as="targetPoint" />
            <Array as="points">
              <mxPoint x="431" y="200" />
              <mxPoint x="493" y="200" />
            </Array>
          </mxGeometry>
        </mxCell>
        <mxCell id="NFWhSgiE6PL1_wkVy4Nq-6" style="edgeStyle=orthogonalEdgeStyle;rounded=0;orthogonalLoop=1;jettySize=auto;html=1;exitX=0.5;exitY=1;exitDx=0;exitDy=0;exitPerimeter=0;entryX=1;entryY=0.5;entryDx=0;entryDy=0;" edge="1" parent="1" source="NFWhSgiE6PL1_wkVy4Nq-7">
          <mxGeometry relative="1" as="geometry">
            <mxPoint x="375" y="318" as="targetPoint" />
            <Array as="points">
              <mxPoint x="436" y="318" />
            </Array>
          </mxGeometry>
        </mxCell>
        <mxCell id="NFWhSgiE6PL1_wkVy4Nq-7" value="" style="outlineConnect=0;dashed=0;verticalLabelPosition=bottom;verticalAlign=top;align=center;html=1;shape=mxgraph.aws3.application_load_balancer;fillColor=#F58534;gradientColor=none;" vertex="1" parent="1">
          <mxGeometry x="400" y="272" width="59" height="38" as="geometry" />
        </mxCell>
        <mxCell id="NFWhSgiE6PL1_wkVy4Nq-8" style="edgeStyle=orthogonalEdgeStyle;rounded=0;orthogonalLoop=1;jettySize=auto;html=1;exitX=0.5;exitY=1;exitDx=0;exitDy=0;exitPerimeter=0;" edge="1" parent="1" source="NFWhSgiE6PL1_wkVy4Nq-7">
          <mxGeometry relative="1" as="geometry">
            <mxPoint x="446" y="308" as="sourcePoint" />
            <mxPoint x="498" y="311" as="targetPoint" />
            <Array as="points">
              <mxPoint x="436" y="318" />
              <mxPoint x="498" y="318" />
            </Array>
          </mxGeometry>
        </mxCell>
        <mxCell id="NFWhSgiE6PL1_wkVy4Nq-10" value="" style="endArrow=none;html=1;rounded=0;" edge="1" parent="1">
          <mxGeometry width="50" height="50" relative="1" as="geometry">
            <mxPoint x="250" y="250" as="sourcePoint" />
            <mxPoint x="595" y="250" as="targetPoint" />
            <Array as="points">
              <mxPoint x="430" y="250" />
            </Array>
          </mxGeometry>
        </mxCell>
        <mxCell id="NFWhSgiE6PL1_wkVy4Nq-11" style="edgeStyle=orthogonalEdgeStyle;rounded=0;orthogonalLoop=1;jettySize=auto;html=1;exitX=0.38;exitY=0.96;exitDx=0;exitDy=0;entryX=1;entryY=0.5;entryDx=0;entryDy=0;exitPerimeter=0;" edge="1" parent="1" source="k0hHhOhGo7dog3xeDhLh-8" target="k0hHhOhGo7dog3xeDhLh-28">
          <mxGeometry relative="1" as="geometry" />
        </mxCell>
        <mxCell id="NFWhSgiE6PL1_wkVy4Nq-13" style="edgeStyle=orthogonalEdgeStyle;rounded=0;orthogonalLoop=1;jettySize=auto;html=1;exitX=0.5;exitY=1;exitDx=0;exitDy=0;entryX=0.492;entryY=0.389;entryDx=0;entryDy=0;entryPerimeter=0;" edge="1" parent="1" source="k0hHhOhGo7dog3xeDhLh-12" target="k0hHhOhGo7dog3xeDhLh-3">
          <mxGeometry relative="1" as="geometry" />
        </mxCell>
        <mxCell id="NFWhSgiE6PL1_wkVy4Nq-15" value="" style="endArrow=classic;html=1;rounded=0;entryX=0.5;entryY=0;entryDx=0;entryDy=0;entryPerimeter=0;" edge="1" parent="1" target="NFWhSgiE6PL1_wkVy4Nq-7">
          <mxGeometry width="50" height="50" relative="1" as="geometry">
            <mxPoint x="430" y="250" as="sourcePoint" />
            <mxPoint x="450" y="230" as="targetPoint" />
          </mxGeometry>
        </mxCell>
        <mxCell id="NFWhSgiE6PL1_wkVy4Nq-22" value="" style="outlineConnect=0;dashed=0;verticalLabelPosition=bottom;verticalAlign=top;align=center;html=1;shape=mxgraph.aws3.application_load_balancer;fillColor=#F58534;gradientColor=none;" vertex="1" parent="1">
          <mxGeometry x="430" y="387" width="20" height="28" as="geometry" />
        </mxCell>
        <mxCell id="NFWhSgiE6PL1_wkVy4Nq-23" value="" style="endArrow=none;html=1;rounded=0;" edge="1" parent="1">
          <mxGeometry width="50" height="50" relative="1" as="geometry">
            <mxPoint x="267.5" y="364.5" as="sourcePoint" />
            <mxPoint x="612.5" y="364.5" as="targetPoint" />
            <Array as="points">
              <mxPoint x="447.5" y="364.5" />
            </Array>
          </mxGeometry>
        </mxCell>
        <mxCell id="NFWhSgiE6PL1_wkVy4Nq-24" style="edgeStyle=orthogonalEdgeStyle;rounded=0;orthogonalLoop=1;jettySize=auto;html=1;exitX=0.38;exitY=0.96;exitDx=0;exitDy=0;entryX=1;entryY=0.5;entryDx=0;entryDy=0;exitPerimeter=0;" edge="1" parent="1">
          <mxGeometry relative="1" as="geometry">
            <mxPoint x="263.5" y="337.5" as="sourcePoint" />
            <mxPoint x="262.5" y="359.5" as="targetPoint" />
          </mxGeometry>
        </mxCell>
        <mxCell id="NFWhSgiE6PL1_wkVy4Nq-25" style="edgeStyle=orthogonalEdgeStyle;rounded=0;orthogonalLoop=1;jettySize=auto;html=1;exitX=0.5;exitY=1;exitDx=0;exitDy=0;entryX=0.492;entryY=0.389;entryDx=0;entryDy=0;entryPerimeter=0;" edge="1" parent="1">
          <mxGeometry relative="1" as="geometry">
            <mxPoint x="610.5" y="332.5" as="sourcePoint" />
            <mxPoint x="610.5" y="364.5" as="targetPoint" />
          </mxGeometry>
        </mxCell>
        <mxCell id="NFWhSgiE6PL1_wkVy4Nq-26" value="" style="endArrow=classic;html=1;rounded=0;entryX=0.5;entryY=0;entryDx=0;entryDy=0;entryPerimeter=0;" edge="1" parent="1" target="NFWhSgiE6PL1_wkVy4Nq-22">
          <mxGeometry width="50" height="50" relative="1" as="geometry">
            <mxPoint x="440" y="360" as="sourcePoint" />
            <mxPoint x="465" y="322.5" as="targetPoint" />
          </mxGeometry>
        </mxCell>
        <mxCell id="NFWhSgiE6PL1_wkVy4Nq-27" value="RDS" style="text;html=1;strokeColor=none;fillColor=none;align=center;verticalAlign=middle;whiteSpace=wrap;rounded=0;" vertex="1" parent="1">
          <mxGeometry x="341" y="420.63" width="60" height="30" as="geometry" />
        </mxCell>
        <mxCell id="NFWhSgiE6PL1_wkVy4Nq-28" value="private Sub" style="text;html=1;strokeColor=none;fillColor=none;align=center;verticalAlign=middle;whiteSpace=wrap;rounded=0;" vertex="1" parent="1">
          <mxGeometry x="230" y="450" width="90" height="30" as="geometry" />
        </mxCell>
      </root>
    </mxGraphModel>
  </diagram>
</mxfile>
